<svg
	version="1"
	xmlns="http://www.w3.org/2000/svg"
	viewBox="0 0 80 80"
	enable-background="new 0 0 80 80"
>
	<g>
		<path
			style="fill:#F5C276;"
			d="M39.999,77.5c-10.664-0.001-20.859-4.565-27.971-12.523C4.819,56.909,1.523,46.49,2.747,35.639
			C4.645,18.805,18.198,5.005,34.976,2.827C36.646,2.61,38.337,2.5,40,2.5c16.174,0,30.474,10.302,35.584,25.634
			c0.704,2.112,2.103,7.418-0.112,11.051c-1.17,1.918-3.219,3.116-6.089,3.562c-0.922,0.143-2.597,0.359-5.123,0.663
			c-3.597,0.43-6.877,2.357-9.001,5.288c-2.152,2.97-2.941,6.585-2.222,10.18l0.431,2.153c0.812,4.055-0.225,8.216-2.843,11.417
			S44.134,77.49,39.999,77.5L39.999,77.5z
			M37.585,55.5c-3.584,0-6.5,2.916-6.5,6.5s2.916,6.5,6.5,6.5s6.5-2.916,6.5-6.5
			S41.169,55.5,37.585,55.5z"
		/>
		<path
			style="fill:#C29653;"
			d="M40,3c15.958,0,30.067,10.164,35.11,25.292c0.682,2.046,2.041,7.178-0.065,10.632
			c-1.09,1.787-3.021,2.906-5.739,3.328c-0.922,0.143-2.64,0.365-5.105,0.66c-3.734,0.447-7.141,2.449-9.347,5.492
			c-2.202,3.038-3.043,6.891-2.307,10.571l0.431,2.154c0.782,3.907-0.217,7.918-2.74,11.002C47.715,75.216,43.983,76.991,40,77
			c-10.523,0-20.582-4.503-27.599-12.356c-7.113-7.96-10.365-18.241-9.158-28.95C5.116,19.086,18.488,5.471,35.04,3.323
			C36.69,3.109,38.358,3,40,3
			M37.585,69c3.86,0,7-3.14,7-7s-3.14-7-7-7s-7,3.14-7,7S33.725,69,37.585,69 M40,2
			c-1.674,0-3.371,0.108-5.089,0.331C17.844,4.547,4.178,18.481,2.25,35.583C-0.34,58.546,17.558,78,40,78
			c8.991-0.021,15.721-8.251,13.958-17.067l-0.431-2.154c-1.431-7.157,3.545-14.006,10.792-14.874
			c2.206-0.264,4.108-0.505,5.14-0.665c10.028-1.555,7.859-11.485,6.599-15.264C71.028,12.883,56.784,2,40,2L40,2z
			M37.585,68
			c-3.314,0-6-2.686-6-6c0-3.314,2.686-6,6-6s6,2.686,6,6C43.585,65.314,40.898,68,37.585,68L37.585,68z"
		/>
	</g>
	<g>
		<circle style="fill:#F78F8F;" cx="18.585" cy="49" r="6.5" />
		<path
			style="fill:#C74343;"
			d="M18.585,43c3.308,0,6,2.692,6,6s-2.692,6-6,6s-6-2.692-6-6S15.276,43,18.585,43 M18.585,42
			c-3.866,0-7,3.134-7,7c0,3.866,3.134,7,7,7c3.866,0,7-3.134,7-7C25.585,45.134,22.451,42,18.585,42L18.585,42z"
		/>
	</g>
	<g>
		<circle style="fill:#FFEEA3;" cx="18.585" cy="29" r="6.5" />
		<g>
			<path
				style="fill:#BA9B48;"
				d="M18.585,23c3.308,0,6,2.692,6,6s-2.692,6-6,6s-6-2.692-6-6S15.276,23,18.585,23
				M18.585,22
				c-3.866,0-7,3.134-7,7s3.134,7,7,7c3.866,0,7-3.134,7-7S22.451,22,18.585,22L18.585,22z"
			/>
		</g>
	</g>
	<g>
		<circle style="fill:#BAE0BD;" cx="34.585" cy="17" r="6.5" />
		<g>
			<path
				style="fill:#5E9C76;"
				d="M34.585,11c3.308,0,6,2.692,6,6s-2.692,6-6,6s-6-2.692-6-6S31.276,11,34.585,11
				M34.585,10
				c-3.866,0-7,3.134-7,7s3.134,7,7,7c3.866,0,7-3.134,7-7S38.451,10,34.585,10L34.585,10z"
			/>
		</g>
	</g>
	<g>
		<circle style="fill:#8BB7F0;" cx="54.585" cy="21" r="6.5" />
		<g>
			<path
				style="fill:#4E7AB5;"
				d="M54.585,15c3.308,0,6,2.692,6,6s-2.692,6-6,6s-6-2.692-6-6S51.276,15,54.585,15
				M54.585,14
				c-3.866,0-7,3.134-7,7s3.134,7,7,7c3.866,0,7-3.134,7-7S58.451,14,54.585,14L54.585,14z"
			/>
		</g>
	</g>
</svg>
